# xmcd
#
# Track frame offsets:
#	150
#	2595
#	14575
#	28470
#	41585
#	53685
#	64135
#	76472
#	88242
#	103335
#	115040
#	126137
#	139282
#	150275
#	161655
#	171522
#	184060
#	198430
#	212992
#	223170
#	238162
#	251712
#	264617
#	276052
#	287255
#	299395
#
# Disc length: 4164 seconds
#
# Revision: 0
# Processed by: cddbd v1.5.2PL0 Copyright (c) Steve Scherf et al.
# Submitted via: audiograbber 1.83.01
#
DISCID=8e10421a
DTITLE=Various Artist - Blue Christmas
DYEAR=1994
DGENRE=Holiday
TTITLE0=Johnny Otis, Little Esther Phillips and Mel Walker - Christmas Greetings
TTITLE1=Clyde McPhatter with The Drifters - White Christmas
TTITLE2=Roy Milton - Christmas Time Blues
TTITLE3=Orioles - What Are You Doing New Year's Eve?
TTITLE4=Jimmy Liggins - I Want My Baby For Christmas
TTITLE5=Mabel Scott - Boogie Woogie Santa Claus
TTITLE6=Billy Ward and His Dominoes - Christmas In Heaven
TTITLE7=Lowell Fulson - Best Wishes
TTITLE8=Little Esther Phillips and Mel Walker - Faraway Christmas Blues
TTITLE9=Big Joe Turner - Christmas Date Blues
TTITLE10=Sam Cooke with The Soul Stirrers - Any Day Now
TTITLE11=Amos Milburn and His Aladdin Chicken Shakers - Let's Make Christmas Merr
TTITLE11=y Baby
TTITLE12=Moonglows - Hey Santa Claus
TTITLE13=Bull Moose Jackson - I'll Be Home for Christmas
TTITLE14=Lowell Fulson - Lonsome Christmas
TTITLE15=Julia Lee - Christmas Spirit
TTITLE16=Louis Jordan - May Everyday Be Christmas
TTITLE17=Nat King Cole - The Christmas Song
TTITLE18=Sugar Chile Robinson - Christmas Boogie
TTITLE19=Orioles - Lonely Christmas
TTITLE20=Jimmy Witherspoon - Oh, How I Hate to See Christmas Come Around
TTITLE21=Smookey Hogg - I Want My Baby For Christmas
TTITLE22=Pilgrim Travelers - I'll Be Home For Christmas
TTITLE23=Moonglows - Just A Lonely Christmas
TTITLE24=Charles Brown - Merry Christmas Baby
TTITLE25=Ravens - Silent Night
EXTD=
EXTT0=
EXTT1=
EXTT2=
EXTT3=
EXTT4=
EXTT5=
EXTT6=
EXTT7=
EXTT8=
EXTT9=
EXTT10=
EXTT11=
EXTT12=
EXTT13=
EXTT14=
EXTT15=
EXTT16=
EXTT17=
EXTT18=
EXTT19=
EXTT20=
EXTT21=
EXTT22=
EXTT23=
EXTT24=
EXTT25=
PLAYORDER=
